# xmcd CD database file
#
# Track frame offsets:
#	200
#	21604
#	35836
#	57704
#	82119
#	106689
#	121835
#	142057
#	174338
#	205149
#	226483
#	241428
#	251120
#
# Disc length: 3458 seconds
#
# Revision: 0
# Processed by: cddbd v1.5.1PL0 Copyright (c) Steve Scherf et al.
# Submitted via: CDex 1.51
#
DISCID=c00d800d
DTITLE=Mustang Blues Gang - With The Worm At The Bottom Of The Bottle - Live
DYEAR=1993
DGENRE=Blues
TTITLE0=Mustang Sally
TTITLE1=Since I Met You Baby
TTITLE2=Tequila ( Have Fun In The "Sun")
TTITLE3=Same Ol' Song
TTITLE4=Further On Up The Road
TTITLE5=Sleeping On The Sidewalk
TTITLE6=Bring It On Home To Me
TTITLE7=Balloo's Blues
TTITLE8=When Jesus Left chicago
TTITLE9=Mustang Blues
TTITLE10=Thunder And Lightning
TTITLE11=Sleephand Fast
TTITLE12=Checkin Up On My Baby
EXTD=YEAR: 1993
EXTT0=
EXTT1=
EXTT2=
EXTT3=
EXTT4=
EXTT5=
EXTT6=
EXTT7=
EXTT8=
EXTT9=
EXTT10=
EXTT11=
EXTT12=
PLAYORDER=
